<?xml version="1.0" standalone="no"?><!DOCTYPE svg PUBLIC "-//W3C//DTD SVG 1.1//EN" "http://www.w3.org/Graphics/SVG/1.1/DTD/svg11.dtd"><svg t="1735204515467" class="icon" viewBox="0 0 1024 1024" version="1.1" xmlns="http://www.w3.org/2000/svg" p-id="4256" xmlns:xlink="http://www.w3.org/1999/xlink" width="200" height="200"><path d="M567.253333 240.341333a32 32 0 0 1 64 0v506.88l106.56-106.602666a32 32 0 1 1 45.248 45.248l-161.194666 161.216a32.021333 32.021333 0 0 1-54.634667-22.634667v-584.106667zM249.024 378.922667l161.216-161.194667a31.978667 31.978667 0 0 1 54.613333 22.613333v584.106667a32 32 0 0 1-64 0v-506.88l-106.56 106.624a32.042667 32.042667 0 0 1-54.634666-22.634667c0-8.192 3.114667-16.384 9.365333-22.634666z" p-id="4257" fill="#ffffff"></path></svg>